<?xml version="1.0" encoding="utf-8"?>
<!-- Generator: Adobe Illustrator 24.0.3, SVG Export Plug-In . SVG Version: 6.00 Build 0)  -->
<svg version="1.1" id="Layer_1" xmlns="http://www.w3.org/2000/svg" xmlns:xlink="http://www.w3.org/1999/xlink" x="0px" y="0px"
	 viewBox="0 0 423.8 246.1" style="enable-background:new 0 0 423.8 246.1;" xml:space="preserve">
<style type="text/css">
	.btn_left_curve{fill:#000;}
</style>
<title>Curve_Left</title>
<g id="Layer_2_1_">
	<g id="Layer_1-2">
		<circle class="btn_left_curve" cx="220.1" cy="22.6" r="22.6"/>
		<rect x="410.5" y="14.7" class="btn_left_curve" width="13.3" height="13.3"/>
		<rect x="242.3" y="19.9" class="btn_left_curve" width="168.2" height="2.7"/>
		<path class="btn_left_curve" d="M29.1,203.5c0-105.5,72.5-169,178-169.1V21C94.1,21,15.5,90.5,15.5,203.5"/>
		<path class="btn_left_curve" d="M22.6,200.8C10.1,200.8,0,211,0,223.5c0,12.5,10.1,22.7,22.6,22.7s22.7-10.1,22.7-22.7c0,0,0,0,0,0
			C45.3,211,35.2,200.8,22.6,200.8C22.6,200.8,22.6,200.8,22.6,200.8z M22.7,234.5c-6.2,0-11.1-5-11.1-11.1c0-6.2,5-11.1,11.1-11.1
			s11.1,5,11.1,11.1c0,0,0,0,0,0C33.9,229.5,28.9,234.5,22.7,234.5C22.7,234.5,22.7,234.5,22.7,234.5L22.7,234.5z"/>
		<rect x="16" y="14.7" class="btn_left_curve" width="13.3" height="13.3"/>
		<rect x="29.3" y="19.9" class="btn_left_curve" width="168.2" height="2.7"/>
	</g>
</g>
</svg>
