<?xml version="1.0" encoding="utf-8"?>
<!-- Generator: Adobe Illustrator 24.0.3, SVG Export Plug-In . SVG Version: 6.00 Build 0)  -->
<svg version="1.1" id="Layer_1" xmlns="http://www.w3.org/2000/svg" xmlns:xlink="http://www.w3.org/1999/xlink" x="0px" y="0px"
	 viewBox="0 0 423.8 246.1" style="enable-background:new 0 0 423.8 246.1;" xml:space="preserve">
<style type="text/css">
	.st0{fill:#FFFFFF;}
</style>
<title>Curve_right</title>
<g id="Layer_2_1_">
	<g id="Layer_1-2">
		<circle class="st0" cx="203.7" cy="223.5" r="22.6"/>
		<rect y="218.1" class="st0" width="13.3" height="13.3"/>
		<rect x="13.3" y="223.5" class="st0" width="168.2" height="2.7"/>
		<path class="st0" d="M394.7,42.6c0,105.5-72.5,169-178,169.1v13.4c113,0,191.5-69.6,191.5-182.5"/>
		<path class="st0" d="M401.2,45.3c12.5,0,22.6-10.1,22.6-22.6S413.7,0,401.2,0s-22.6,10.1-22.6,22.6l0,0
			C378.6,35.1,388.7,45.3,401.2,45.3z M401.1,11.6c6.2,0,11.2,4.9,11.2,11.1s-4.9,11.2-11.1,11.2s-11.2-5-11.2-11.1l0,0
			C390,16.6,395,11.6,401.1,11.6z"/>
		<rect x="394.5" y="218.1" class="st0" width="13.3" height="13.3"/>
		<rect x="226.3" y="223.5" class="st0" width="168.2" height="2.7"/>
	</g>
</g>
</svg>
