<svg 
xmlns="http://www.w3.org/2000/svg"
xmlns:xlink="http://www.w3.org/1999/xlink"
width="34px" height="34px">
<path fill-rule="evenodd"  fill="rgb(244, 246, 247)"
d="M5.000,-0.000 L29.000,-0.000 C31.761,-0.000 34.000,2.239 34.000,5.000 L34.000,29.000 C34.000,31.761 31.761,34.000 29.000,34.000 L5.000,34.000 C2.239,34.000 -0.000,31.761 -0.000,29.000 L-0.000,5.000 C-0.000,2.239 2.239,-0.000 5.000,-0.000 Z"/>
<path fill-rule="evenodd"  fill="rgb(28, 28, 28)"
d="M19.236,11.119 C19.021,10.897 18.663,10.897 18.441,11.119 C18.226,11.334 18.226,11.692 18.441,11.906 L22.473,15.939 L9.167,15.939 C8.857,15.939 8.610,16.186 8.610,16.496 C8.610,16.806 8.857,17.061 9.167,17.061 L22.473,17.061 L18.441,21.086 C18.226,21.308 18.226,21.666 18.441,21.881 C18.663,22.103 19.022,22.103 19.236,21.881 L24.223,16.894 C24.446,16.679 24.446,16.321 24.223,16.107 L19.236,11.119 Z"/>
</svg>