<svg 
 xmlns="http://www.w3.org/2000/svg"
 xmlns:xlink="http://www.w3.org/1999/xlink"
 width="34px" height="34px">
<path fill-rule="evenodd"  fill="rgb(244, 246, 247)"
 d="M5.000,-0.000 L29.000,-0.000 C31.761,-0.000 34.000,2.239 34.000,5.000 L34.000,29.000 C34.000,31.761 31.761,34.000 29.000,34.000 L5.000,34.000 C2.239,34.000 0.000,31.761 0.000,29.000 L0.000,5.000 C0.000,2.239 2.239,-0.000 5.000,-0.000 Z"/>
<path fill-rule="evenodd"  fill="rgb(28, 28, 28)"
 d="M14.764,11.119 C14.979,10.897 15.337,10.897 15.559,11.119 C15.774,11.334 15.774,11.692 15.559,11.906 L11.527,15.939 L24.833,15.939 C25.143,15.939 25.390,16.186 25.390,16.496 C25.390,16.806 25.143,17.061 24.833,17.061 L11.527,17.061 L15.559,21.086 C15.774,21.308 15.774,21.666 15.559,21.881 C15.337,22.103 14.978,22.103 14.764,21.881 L9.777,16.894 C9.554,16.679 9.554,16.321 9.777,16.107 L14.764,11.119 Z"/>
</svg>